/* XPM */
static char *result[] = {
/* columns rows colors chars-per-pixel */
"48 48 3 1 ",
"  c #B13E53",
". c #EF7D57",
"X c #FFCD75",
/* pixels */
"   ...        ..   ...        ..   ...        ..",
"      ......          ......          ......    ",
"    ..      ..      ..      ..      ..      ..  ",
"....          ......          ......          ..",
"        XXXXX           XXXXX           XXXXX   ",
"     XXXXXXXXX       XXXXXXXXX       XXXXXXXXX  ",
"XXXXXX......XXXXXXXXXX......XXXXXXXXXX......XXXX",
"XXXX..XXXXXX..XXXXXX..XXXXXX..XXXXXX..XXXXXX..XX",
"....XXXX....XX......XXXX....XX......XXXX....XX..",
"XXXXXXX........XXXXXXXX........XXXXXXXX........X",
".....X...............X...............X..........",
"................................................",
"........       .........       .........       .",
"   .... .......    .... .......    .... ....... ",
"...    ............    ............    .........",
"................................................",
"   ...        ..   ...        ..   ...        ..",
"      ......          ......          ......    ",
"    ..      ..      ..      ..      ..      ..  ",
"....          ......          ......          ..",
"        XXXXX           XXXXX           XXXXX   ",
"     XXXXXXXXX       XXXXXXXXX       XXXXXXXXX  ",
"XXXXXX......XXXXXXXXXX......XXXXXXXXXX......XXXX",
"XXXX..XXXXXX..XXXXXX..XXXXXX..XXXXXX..XXXXXX..XX",
"....XXXX....XX......XXXX....XX......XXXX....XX..",
"XXXXXXX........XXXXXXXX........XXXXXXXX........X",
".....X...............X...............X..........",
"................................................",
"........       .........       .........       .",
"   .... .......    .... .......    .... ....... ",
"...    ............    ............    .........",
"................................................",
"   ...        ..   ...        ..   ...        ..",
"      ......          ......          ......    ",
"    ..      ..      ..      ..      ..      ..  ",
"....          ......          ......          ..",
"        XXXXX           XXXXX           XXXXX   ",
"     XXXXXXXXX       XXXXXXXXX       XXXXXXXXX  ",
"XXXXXX......XXXXXXXXXX......XXXXXXXXXX......XXXX",
"XXXX..XXXXXX..XXXXXX..XXXXXX..XXXXXX..XXXXXX..XX",
"....XXXX....XX......XXXX....XX......XXXX....XX..",
"XXXXXXX........XXXXXXXX........XXXXXXXX........X",
".....X...............X...............X..........",
"................................................",
"........       .........       .........       .",
"   .... .......    .... .......    .... ....... ",
"...    ............    ............    .........",
"................................................"
};
