/* XPM */
static char *result[] = {
/* columns rows colors chars-per-pixel */
"48 48 56 1 ",
"  c black",
". c #1B3109",
"X c #233E04",
"o c #381F2C",
"O c #003320",
"+ c #003138",
"@ c #2E2236",
"# c #68161B",
"$ c #6C3A01",
"% c #074805",
"& c #315100",
"* c #246F00",
"= c #00472B",
"- c #557800",
"; c #00394E",
": c #2B386C",
"> c #7E0159",
", c #4F2C5F",
"< c #573A78",
"1 c #004140",
"2 c #007146",
"3 c #00605A",
"4 c #007970",
"5 c #A83303",
"6 c #8B2223",
"7 c #A5292A",
"8 c #E63030",
"9 c #FF3432",
"0 c #944F00",
"q c #B36200",
"w c #E05B03",
"e c #D17402",
"r c #D07B04",
"t c #FB7C00",
"y c #940372",
"u c #309600",
"i c #709A00",
"p c #40CA00",
"a c #00BC76",
"s c #CC971E",
"d c #FF8B00",
"f c #FFB500",
"g c #FFD417",
"h c #204883",
"j c #2B5BA3",
"k c #6D4A94",
"l c #B30A8A",
"z c #E42EAD",
"x c #009C90",
"c c #00B0A3",
"v c #FFFFED",
"A c #333C57",
"B c #566C86",
"C c #94B0C2",
"D c #F4F4F4",
"b c None",
/* pixels */
"CCCCCDBBCCCCCACCCCCCCDBBCCCCCACCCCCCCDBBCCCCCACC",
"CCCCCCDBBBBBBABCCCCCCCDBBBBBBABCCCCCCCDBBBBBBABC",
"CCCCCCAABBBBABBBCCCC  AABBBBABBBCCCCCCAABBBBABBB",
"BBCCCAAADDDAABBBBBCC ; ADDDAABBBBBCCCAAADDDAABBB",
"BBBBAADDCCCDAABBBBBB ;; CCCDAABBBBBBAADDCCCDAABB",
"BBBAADCCCCC    BBBBAA 3 CCCCDAABBBBAADCCCCCCDAAB",
"AAAADCCCCCC 33;  AAAD ;3 CCCCBAAAAA DCCCCCCCCBAA",
"DDADCCCCCCCC  33;  DCC 3; CCBBADDDA  CCCCCCCBBAD",
"CCDACCCCCCCBBD  33;  C 34 CBBDDCCCD 8 CCCCCBBDDC",
"CCCCBCBBCCBBDCCC ;33;  ;43 BDCCCCCC 8 BBCCBBDCCC",
"CCCBABBBBBBBCC    ;444  ;43 CCCCCCC 98 BBBBBCCCC",
"CCBBAABBBBBBCC 333;34444  43 CC     996 BBBBCCCC",
"CBBBAAADDDDAABC ;33;;344xx   BC ###  997 D  ABCC",
"BBBAAADCCCCDAABB  ;;;;;3xxcc  BB   # 798  9 AABB",
"DDDDADCCC     ADDD 33;33;4ccc AD ##6# 88789 DAAD",
"CCCCDACC ccx44 CC ;;;;;;;;;cc D #66###7888 CCADC",
"CCCCCDB cc44444 CC 443;433;44      #7wffd CCCACC",
"CCCCCC xx1333114 CC @@444;@:4 CCCC wdffffr BBABC",
"CCCCC 341     114 C jj@@@@@@h: BC 55667v gg ABBB",
"BBCCC 41 DDAAB 114 C ::@hhh::h B 55#888  rgg BBB",
"BBBBA 3 CCCD    11+  @@jjh@@@h  wdw5#6877     BB",
"BBBAA 1 CCC 68886++ @hh@@@hh:h:wdd5t#88776r DAAB",
"AAAAD 1 CC 6888886++ @h:@jj@@:k<dwdtw##887 CCBAA",
"DD DC 1 C 686#####6++  @@@oo,,<k5ddw55#88 CCBBAD",
"CC  CC  C 76     ### @kkk<o<<o,k<5wt55687 CBBDDC",
"CC p CB   7#   ylly>>  ooo<<oo,o,5ddwt   CBBDCCC",
"CC pp  %* 6 %%yzly>>  o<<,ooo<,o,5dwdd BBBBBCCCC",
"CCB puu*% 6   zz    OO   o,,o<oo$555d BBBBBBCCCC",
"CBBB      # ==zl=22=OOO o<<o<o,oq$$55 ADDDDAABCC",
"BBBAAADC   =2=l  OOO  =O oo,oo,osqs$ ADCCCCDAABB",
"DDDDADCCC =2= l iii---&X$0o,oqogqss ADCCCCCCDAAD",
"CCCCDACC =2=  >i-11&&..$qeooqsssqq CDACCCCCCCADC",
"CC CCD  =2=  -i-11..XX$eeeq00qqqs    DBBCCCCCACC",
"CC    =22= &ii1331     $$00e0sgs$r gg DBBBBBBABC",
"CC 2aaa=  --&1xx3 CCC $0e0ee0$ $grgrrg ABBBBABBB",
"BBC     D    3xx BCCC $$00e$$ B   r  r ADDDAABBB",
"BBBBAADDCCCD xx3 BBBA  $$0$$ ABBBB  A  DCCCDAABB",
"BBBAADCCCCCC xx3 BBAADC rgr DAABBBBAADCCCCCCDAAB",
"AAAADCCCCC  333 AAAADCC  rg  BAAAAAADCCCCCCCCBAA",
"DDADCCCC  3333 DDDADCCCCC rr  ADDDADCCCCCCCCBBAD",
"CCDACC  3333  CDDCCCCCCCB rggr CCCDACCCCCCCBBDDC",
"CCCCB       DCCCCCCCBCBBC g  g CCCCCBCBBCCBBDCCC",
"CCCBABBBBBBBCCCCCCCBABBBB g C  CCCCBABBBBBBBCCCC",
"CCBBAABBBBBBCCCCCCBBAABBB  BCCCCCCBBAABBBBBBCCCC",
"CBBBAAADDDDAABCCCBBBAAADDDDAABCCCBBBAAADDDDAABCC",
"BBBAAADCCCCDAABBBBBAAADCCCCDAABBBBBAAADCCCCDAABB",
"DDDDADCCCCCCDAADDDDDADCCCCCCDAADDDDDADCCCCCCDAAD",
"CCCCDACCCCCCCADCCCCCDACCCCCCCADCCCCCDACCCCCCCADC"
};
