/* XPM */
static char *result[] = {
/* columns rows colors chars-per-pixel */
"48 48 142 2 ",
"   c #2E0806",
".  c #330B07",
"X  c #350D0A",
"o  c #36110F",
"O  c #39120F",
"+  c #3E1916",
"@  c #3C1918",
"#  c #411C19",
"$  c #44201C",
"%  c #642110",
"&  c #6A2815",
"*  c #652D1F",
"=  c #702D19",
"-  c #472320",
";  c #482421",
":  c #573B3A",
">  c #6D3120",
",  c #624441",
"<  c #6A4D4A",
"1  c #6F5350",
"2  c #715653",
"3  c #745957",
"4  c #7C6260",
"5  c #9E3D19",
"6  c #B3471C",
"7  c #B54F27",
"8  c #B45027",
"9  c #BB5126",
"0  c #C74E1D",
"q  c #CB521F",
"w  c #CA5221",
"e  c #C3582C",
"r  c #CC5A2A",
"t  c #D05724",
"y  c #D45C2A",
"u  c #D85D28",
"i  c #CC5F32",
"p  c #E65D21",
"a  c #D5612F",
"s  c #DC622E",
"d  c #CD6234",
"f  c #DA6330",
"g  c #D0683C",
"h  c #E66126",
"j  c #EA6126",
"k  c #E7652C",
"l  c #E9662C",
"z  c #E7682F",
"x  c #EC682D",
"c  c #E66730",
"v  c #E76933",
"b  c #E86B34",
"n  c #E96E3A",
"m  c #E7703A",
"M  c #E9713D",
"N  c #B46142",
"B  c #806765",
"V  c #946D63",
"C  c #87726F",
"Z  c #D26D43",
"A  c #D3754E",
"S  c #D37650",
"D  c #D77952",
"F  c #D87E57",
"G  c #EB7443",
"H  c #E97844",
"J  c #EA7D4C",
"K  c #94807E",
"L  c #BF8E7D",
"P  c #DB825C",
"I  c #EB8455",
"U  c #E4855B",
"Y  c #ED895C",
"T  c #D88562",
"R  c #D98B6B",
"E  c #DD9373",
"W  c #ED8D63",
"Q  c #ED9067",
"!  c #ED946C",
"~  c #F09770",
"^  c #9A8785",
"/  c #B5A9A7",
"(  c #B9ADAB",
")  c #BFB2B1",
"_  c #E09D82",
"`  c #CCAB9E",
"'  c #E4A286",
"]  c #E1A388",
"[  c #E7A88C",
"{  c #E9A98A",
"}  c #F1A785",
"|  c #F1A984",
" . c #F2AE8C",
"z. c #E9AD93",
"X. c #F1AE90",
"o. c #E6B39C",
"O. c #EBB599",
"+. c #F1B499",
"@. c #F4BA9C",
"#. c #C8B4AE",
"$. c #C3B9B7",
"%. c #C4B9B8",
"&. c #E7B6A2",
"*. c #E8BBA9",
"=. c #F3BBA2",
"-. c #F3C2A7",
";. c #F5C3AC",
":. c #F6C8AD",
">. c #EDC8B7",
",. c #EDCABB",
"<. c #F6CEBC",
"1. c #F8D0B7",
"2. c #F9D5BE",
"3. c #DBCEC9",
"4. c #DBD3D3",
"5. c #EFCEC1",
"6. c #F6D3C4",
"7. c #F9D6C0",
"8. c #FADAC4",
"9. c #FADECB",
"0. c #E3D7D4",
"q. c #F5DFD6",
"w. c #FAE0CE",
"e. c #FAE3D4",
"r. c #F6E3DC",
"t. c #FBE5DA",
"y. c #FBE9DD",
"u. c #E7E5E5",
"i. c #E8E3E2",
"p. c #EFECEC",
"a. c #F7EBE5",
"s. c #FAEBE4",
"d. c #FAEFEA",
"f. c #FBF1EB",
"g. c #F7F6F5",
"h. c #FCF6F1",
"j. c #FDF9F6",
"k. c #FFFFFF",
",, c #333C57",
".. c #566C86",
"XX c #94B0C2",
"oo c #F4F4F4",
/* pixels */
"XXXXXXXXXXoo....XXXXXXXXXX,,XXXXXXXXXXXXXXoo....XXXXXXXXXX,,XXXXXXXXXXXXXXoo....XXXXXXXXXX,,XXXX",
"XXXXXXXXXXXXoo............,,..XXXXXXXXXXXXXXoo............,,..XXXXXXXXXXXXXXoo............,,..XX",
"XXXXXXXXXXXX,,,,........,,......XXXXXXXXXXXX,,,,........,,......XXXXXXXXXXXX,,,,........,,......",
"....XXXXXX,,,,,,oooooo,,,,..........XXXXXX,,,,,,oooooo,,,,..........XXXXXX,,,,,,oooooo,,,,......",
"........,,,,ooooXXXXXXoo,,,,............,,,,ooooXXXXXXoo,,,,............,,,,ooooXXXXXXoo,,,,....",
"......,,,,ooXXXXXXXXXXXXoo,,,,........,,,,ooXXXXXXXXXXXXoo,,,,........,,,,ooXXXXXXXXXXXXoo,,,,..",
",,,,,,,,ooXXXXXXXXXXXXXXXX..,,,,,,,,,,,,ooXXXXXXXXXXXXXXXX..,,,,,,,,,,,,ooXXXXXXXXXXXXXXXX..,,,,",
"oooo,,ooXXXXXXXXXXXXXXXX....,,oooooo,,ooXXXXXXXXXXXXXXXX....,,oooooo,,ooXXXXXXXXXXXXXXXX....,,oo",
"XXXXoo,,XXXXXXXXXXXXXX....ooooXXXXXXoo,,XXXXXXXXXXXXXX....ooooXXXXXXoo,,XXXXXXXXXXXXXX....ooooXX",
"XXXXXXXX..XX....XXXX....ooXXXXXXXXXXXXXX..XX....XXXX....ooXXXXXXXXXXXX<.~ j.....XXXX....ooXXXXXX",
"XXXXXX..,,..............XXXXXXXXXXXXXX..,,..............XXXXXXXXXXXXXX-.5 z.............XXXXXXXX",
"XXXX....,,,,............XXXXXXXXXXXX....,,,,............XXXXXXXXXXXXh.U & V z...........XXXXXXXX",
"XX......,,,,,,oooooooo,,,,..XXXXXX......,,,,,,oooooooo,,,,..XXXXXX5.R u 8 N } f.oooooo,,,,..XXXX",
"......,,,,,,ooXXXXXXXXoo,,,,..........,,,,,,ooXXXXXXXXoo,,,,....o.A q s x x x s.XXXXXXoo,,,,....",
"oooooooo,,ooXXXXXXXXXXXXoo,,,,oooooooooo,,ooXXXXXXXXXXXXoo,,,,>.y y f k x r e @.XXXXXXXXoo,,,,oo",
"XXXXXXXXoo,,XXXXXXXXXXXXXX,,ooXXXXXXXXXXoo,,XXXXXXXXXXXXXX,,*.S u x z k z e 9 G ` u.XXXXXX,,ooXX",
"XXXXXXXXXXoo....XXXXXXXXXX,,XXXXXXXXXXXXXXoo6.=.;.;.;.;.;.=.a a c l z k h k k j 6 3.XXXXXX,,XXXX",
"XXXXXXXXXXXXoo............,,..XXXXXXXXXXj.<.J p k p h p k p k c k l k m Y Y Y Y Y t.......,,..XX",
"XXXXXXXXXXXX,,,,........,,......XXXXXXs.=.l n n v k k k k c c k l k z | 9.8.w.t.t.h.....,,......",
"....XXXXXX,,,,,,oooooo,,,,..........j.! p G G G n k k k k k k k l j Y 7.7.7.f.,,oooooo,,,,......",
"........,,,,ooooXXXXXXoo,,,,......s.=.k k n G G n b k k k c k k h m -.8.2.e.ooooXXXXXXoo,,,,....",
"......,,,,ooXXXXXXXXXXXXoo,,,,..j.Q k l k n G n G G c k k k k k k | 8.7.2.t.XXXXXXXXXXXXoo,,,,..",
",,,,,,,,ooXXXXXXXXXXXXXXXX..,,,,=.h k k k k v v n G k k k l x k I 2.7.2.8.j.XXXXXXXXXXXXXX..,,,,",
"oooo,,ooXXXXXXXXXXXXXXXX....,,t.M k k k k k M M v v k k k k l k Y 7.7.2.8.XXXXXXXXXXXXXX....,,oo",
"XXXXoo,,XXXXXXXXXXXXXX....ooj.Q h k k b k k k v k k k k k k k n -.7.7.2.f.XXXXXXXXXXXX....ooooXX",
"XXXXXXXX..XX....XXXX....ooXX@.j k k h X.I k k c k k k k k k h } 8.7.2.t...XX....XXXX....ooXXXXXX",
"XXXXXX..,,..............j.W n k v k t o.U h k k k k v k l k h  .8.7.9.j.,,..............XXXXXXXX",
"XXXX....,,,,..........j.O.k k k k h F d.5.f k k k y ' t.[ h s { 8.2.f...,,,,............XXXXXXXX",
"XX......,,,,,,ooooooh.! m k l l c u T ..q.a v c k D d.,,&.w r g Z o.....,,,,,,oooooooo,,,,..XXXX",
"......,,,,,,ooXXXX-.Y l k c k k s d 5.,,q.y y a r P XXooa.D w ' ,.r...,,,,,,ooXXXXXXXXoo,,,,....",
"oooooooo,,ooXXXXt.:.H k k k k c r i f.oo0.> 7 y r >.XXXXooV % #.oooooooo,,ooXXXXXXXXXXXXoo,,,,oo",
"XXXXXXXXoo,,XXXXw.8.+.v k z k f w _ j.XX4.@ * = L j.XXXXXX2   / XXXXXXXXoo,,XXXXXXXXXXXXXX,,ooXX",
"XXXXXXXXXXoo..f.8.7.1.m k s a q A a.XXXX4.# o : i.XXXXXXXX3 . / XXXXXXXXXXoo....XXXXXXXXXX,,XXXX",
"XXXXXXXXXXXXooy.2.7.2.! a r 0 E 5.XXXXXX4.+ - $...........3 . / XXXXXXXXXXXXoo............,,..XX",
"XXXXXXXXXXXXj.e.2.7.8.O.0 d ] f.XXXXXXXX4.+ ; %.........,,3 . ( XXXXXXXXXXXX,,,,........,,......",
"....XXXXXX,,f.2.7.7.7.-.E o.........XXXX4.+ X B oooooo,,,,3 X C g...XXXXXX,,,,,,oooooo,,,,......",
"........,,,,h.2.2.2.9.t.h.,,............i., X < ) g.XXoo,,2 O + ( ......,,,,ooooXXXXXXoo,,,,....",
"......,,,,ooj.e.e.e.h.XXoo,,,,........,,,,%.$ . + i.XXXXoo1 X . , ....,,,,ooXXXXXXXXXXXXoo,,,,..",
",,,,,,,,ooXXXXXXXXXXXXXXXX..,,,,,,,,,,,,ooXX^ 1 4 p.XXXXXX^ 2 2 K ,,,,,,ooXXXXXXXXXXXXXXXX..,,,,",
"oooo,,ooXXXXXXXXXXXXXXXX....,,oooooo,,ooXXXXXXXXXXXXXXXX....,,oooooo,,ooXXXXXXXXXXXXXXXX....,,oo",
"XXXXoo,,XXXXXXXXXXXXXX....ooooXXXXXXoo,,XXXXXXXXXXXXXX....ooooXXXXXXoo,,XXXXXXXXXXXXXX....ooooXX",
"XXXXXXXX..XX....XXXX....ooXXXXXXXXXXXXXX..XX....XXXX....ooXXXXXXXXXXXXXX..XX....XXXX....ooXXXXXX",
"XXXXXX..,,..............XXXXXXXXXXXXXX..,,..............XXXXXXXXXXXXXX..,,..............XXXXXXXX",
"XXXX....,,,,............XXXXXXXXXXXX....,,,,............XXXXXXXXXXXX....,,,,............XXXXXXXX",
"XX......,,,,,,oooooooo,,,,..XXXXXX......,,,,,,oooooooo,,,,..XXXXXX......,,,,,,oooooooo,,,,..XXXX",
"......,,,,,,ooXXXXXXXXoo,,,,..........,,,,,,ooXXXXXXXXoo,,,,..........,,,,,,ooXXXXXXXXoo,,,,....",
"oooooooo,,ooXXXXXXXXXXXXoo,,,,oooooooooo,,ooXXXXXXXXXXXXoo,,,,oooooooooo,,ooXXXXXXXXXXXXoo,,,,oo",
"XXXXXXXXoo,,XXXXXXXXXXXXXX,,ooXXXXXXXXXXoo,,XXXXXXXXXXXXXX,,ooXXXXXXXXXXoo,,XXXXXXXXXXXXXX,,ooXX"
};
