/* XPM */
static char *result[] = {
/* columns rows colors chars-per-pixel */
"48 48 9 1 ",
"  c black",
". c #AC3232",
"X c #DF7126",
"o c gray92",
"O c None",
"A c #333C57",
"B c #566C86",
"C c #94B0C2",
"D c #F4F4F4",
/* pixels */
"CCCCCDBBCCCCCAC         CCCCCACCCCCCCDBBCCCCCACC",
"CCCCCCDBBBBBBAB         BBBBBABCCCCCCCDBBBBBBABC",
"CCCCCCAABBBBABB         BBBBABBBCCCCCCAABBBBABBB",
"BBCCCAAAD      .........      BBBBCCCAAADDDAABBB",
"BBBBAADDC      .........      BBBBBBAADDCCCDAABB",
"BBBAADCCC      .........      ABBBBAADCCCCCCDAAB",
"AAAADC   ooooooooooooooooooooo   AAADCCCCCCCCBAA",
"DDADCC   ooooooooooooooooooooo   DADCCCCCCCCBBAD",
"CCDACC   ooooooooooooooooooooo   CDACCCCCCCBBDDC",
"CCC   ooooooooooooooooooooooooooo   BCBBCCBBDCCC",
"CCC   ooooooooooooooooooooooooooo   ABBBBBBBCCCC",
"CCB   ooooooooooooooooooooooooooo   AABBBBBBCCCC",
"CBB   ooooooooooooooooooooooooooo   AAADDDDAABCC",
"BBB   ooooooooooooooooooooooooooo   AADCCCCDAABB",
"DDD   ooooooooooooooooooooooooooo   ADCCCCCCDAAD",
"CCC   oooooo   oooooo   ooooooooo         CCCADC",
"CCC   oooooo   oooooo   ooooooooo         CCCACC",
"CCC   oooooo   oooooo   ooooooooo         BBBABC",
"CCC   oooooo   oooooo   ooooooooo   oooooo   BBB",
"BBC   oooooo   oooooo   ooooooooo   oooooo   BBB",
"BBB   oooooo   oooooo   ooooooooo   oooooo   ABB",
"BBB   oooXXXXXXXXXooooooooooooooo   oooooo   AAB",
"AAA   oooXXXXXXXXXooooooooooooooo   oooooo   BAA",
"DDA   oooXXXXXXXXXooooooooooooooo   oooooo   BAD",
"CCD   oooooooooXXXoooooooooooooooooo   ooo   DDC",
"CCC   oooooooooXXXoooooooooooooooooo   ooo   CCC",
"CCC   oooooooooXXXoooooooooooooooooo   ooo   CCC",
"CCB   ooooooXXX...oooooooooooooooooooooooo   CCC",
"CBB   ooooooXXX...oooooooooooooooooooooooo   BCC",
"BBB   ooooooXXX...oooooooooooooooooooooooo   ABB",
"DDD   oooooooooooooooooooooooooooooooooooo   AAD",
"CCC   oooooooooooooooooooooooooooooooooooo   ADC",
"CCC   oooooooooooooooooooooooooooooooooooo   ACC",
"CCC   ooooooooooooooooooooooooooooooooo   BBBABC",
"CCC   ooooooooooooooooooooooooooooooooo   BBABBB",
"BBC   ooooooooooooooooooooooooooooooooo   DAABBB",
"BBB   ooooooooooooooooooooooooooooooooo   CDAABB",
"BBB   ooooooooooooooooooooooooooooooooo   CCDAAB",
"AAA   ooooooooooooooooooooooooooooooooo   CCCBAA",
"DDADCC   ooooooooo      ooooooooo      CCCCCBBAD",
"CCDACC   ooooooooo      ooooooooo      CCCCBBDDC",
"CCCCBC   ooooooooo      ooooooooo      BCCBBDCCC",
"CCCBABBBB   XXX   CBABBB   XXX   CCBABBBBBBBCCCC",
"CCBBAABBB   XXX   BBAABB   XXX   CBBAABBBBBBCCCC",
"CBBBAAADD   XXX   BBAAAD   XXX   BBBAAADDDDAABCC",
"BBBAAADCC      BBBBAAADC      BBBBBAAADCCCCDAABB",
"DDDDADCCC      DDDDDADCC      ADDDDDADCCCCCCDAAD",
"CCCCDACCC      CCCCCDACC      DCCCCCDACCCCCCCADC"
};
