/* XPM */
static char *result[] = {
/* columns rows colors chars-per-pixel */
"48 48 7 1 ",
"  c #333C57",
". c #566C86",
"X c #94B0C2",
"o c #F4F4F4",
"0 c #AE4A34",
"1 c #A5260A",
"2 c #000000",
/* pixels */
"XXXXXo..XXXXX XXXXXXXo..XXXXX XXXXXXXo..XXXXX XX",
"XXXXXXo...... .XXXXXXXo...... .XXXXXXXo...... .X",
"XXXXXX  .... ...XXXXXX  .... ...XXXXXX  .... ...",
"..XXX   ooo  .....XXX   ooo  .....XXX   ooo  ...",
"....  ooXXXo  ......  ooXXXo  ......  ooXXXo  ..",
"...  oXXXXXXo  ....  oXXXXXXo  ....  oXXXXXXo  .",
"    oXXXXXXXX.      oXXXXXXXX.      oXXXXXXXX.  ",
"oo oXXXXXXXX.. ooo oXXXXXXXX.. ooo o0000XXXX.. o",
"XXo XXXXXXX..ooXXXo XXXXXXX..ooX0000000XXXX..ooX",
"XXXX.X..XX..oXXXXXXX.X..XX..oX000000.X..XX..oXXX",
"XXX. .......XXXXXXX. .......1100XXX. .......XXXX",
"XX..  ......XXXXXX..  ......000XXX..  ......XXXX",
"X...   oooo  .XXX...   oooo00000X...   oooo  .XX",
"...   oXXXXo  .....   oXXX00000....   oXXXXo  ..",
"oooo oXXXXXXo  ooooo oXXXX00000ooooo oXXXXXXo  o",
"XXXXo XXXXXXX oXXXXXo XXX000000XXXXXo XXXXXXX oX",
"XXXXXo..XXXXX XXXXXXXo..111000XXXXXXXo..XXXXX XX",
"XXXXXXo...... .XXXXXXXo.00011 .XXXXXXXo...... .X",
"XXXXXX  .... ...XXXXXX 0000. ...XXXXXX  .... ...",
"..XXX   ooo  .....XXX  0000  .....XXX   ooo  ...",
"....  ooXXXo  ......  oo00000 ......  ooXXXo  ..",
"...  oXXXXXXo000...  oXXXX00111....  oXXXXXXo  .",
"    oXXXXXX0000000  oXXXXXX100000000oXXXXXXXX.  ",
"oo oXXXXXX0100000000XXXXXXXX.00000000000XXXX.. o",
"XXo XXXXX0001ooX00000XXXXXX..ooXX000000000X..ooX",
"XXXX.X..0000oXXXXX00000.XX..oXXXXXX1111111..oXXX",
"XXX. ....0000XXXXXX10000000XXXXX000000000...XXXX",
"XX..  ....0000XXXX..  000000010000000000....XXXX",
"X...   oooo00000XX...   o0000100000000 oooo  .XX",
"...   oXXXXo0000010000000000000....   oXXXXo  ..",
"oooo oXXXXXXo 000100000000000111oooo oXXXXXXo  o",
"XXXXo XXXXXXX oXX10000000X111000XXXXo XXXXXXX oX",
"XXXXXo..XXXXX XXXXXXXo..XXXX0000XXXXXo..XXXXX XX",
"XXXXXXo...... .XXXXXXXo....000000XXXXXo...... .X",
"XXXXXX  .... ...XXXXXX  ..00000000XXXX  .... ...",
"..XXX   ooo  .....XXX   oo00000000XXX   ooo  ...",
"....  ooXXXo  ......  ooXX00200200..  ooXXXo  ..",
"...  oXXXXXXo  ....  oXXXXX000000..  oXXXXXXo  .",
"    oXXXXXXXX.      oXXXXXXXX.      oXXXXXXXX.  ",
"oo oXXXXXXXX.. ooo oXXXXXXXX.. ooo oXXXXXXXX.. o",
"XXo XXXXXXX..ooXXXo XXXXXXX..ooXXXo XXXXXXX..ooX",
"XXXX.X..XX..oXXXXXXX.X..XX..oXXXXXXX.X..XX..oXXX",
"XXX. .......XXXXXXX. .......XXXXXXX. .......XXXX",
"XX..  ......XXXXXX..  ......XXXXXX..  ......XXXX",
"X...   oooo  .XXX...   oooo  .XXX...   oooo  .XX",
"...   oXXXXo  .....   oXXXXo  .....   oXXXXo  ..",
"oooo oXXXXXXo  ooooo oXXXXXXo  ooooo oXXXXXXo  o",
"XXXXo XXXXXXX oXXXXXo XXXXXXX oXXXXXo XXXXXXX oX"
};
